<svg width="600" height="900" viewBox="0 0 600 900" fill="none" xmlns="http://www.w3.org/2000/svg">
<path d="M375 5.42373e-06C345.452 6.71529e-06 316.194 5.81982 288.896 17.1271C261.598 28.4344 236.794 45.0078 215.901 65.901C195.008 86.7942 178.434 111.598 167.127 138.896C155.82 166.195 150 195.453 150 225L375 225L375 5.42373e-06Z" fill="#D04940"/>
<path d="M600 450C570.453 450 541.195 455.82 513.896 467.127C486.598 478.434 461.794 495.008 440.901 515.901C420.008 536.794 403.435 561.598 392.127 588.896C380.82 616.194 375 645.453 375 675L600 675L600 450Z" fill="#E9DE7C"/>
<path d="M-75.0001 225C-45.4527 225 -16.1946 219.18 11.1037 207.873C38.4019 196.566 63.2057 179.992 84.0989 159.099C104.992 138.206 121.565 113.402 132.873 86.1038C144.18 58.8055 150 29.5475 150 3.05176e-05L-75.0001 4.1247e-05L-75.0001 225Z" fill="#72CB96"/>
<path fill-rule="evenodd" clip-rule="evenodd" d="M11.1037 207.873C-16.1946 219.18 -45.4527 225 -75.0001 225L-75.0001 4.89443e-05L-74.9998 3.8147e-05L84.0989 159.099C63.2057 179.992 38.4019 196.566 11.1037 207.873Z" fill="#D04940"/>
<path d="M600 675C570.453 675 541.195 680.82 513.896 692.127C486.598 703.434 461.794 720.008 440.901 740.901C420.008 761.794 403.435 786.598 392.127 813.896C380.82 841.194 375 870.453 375 900L600 900L600 675Z" fill="#72CB96"/>
<path d="M600 765C582.272 765 564.717 768.492 548.338 775.276C531.959 782.061 517.076 792.005 504.541 804.541C492.005 817.077 482.061 831.959 475.276 848.338C468.492 864.717 465 882.272 465 900L600 900L600 765Z" fill="#363C3E"/>
<rect x="375" y="3.05176e-05" width="112.5" height="112.5" fill="#72CB96"/>
<rect x="375" y="112.5" width="112.5" height="112.5" fill="#363C3E"/>
<rect x="487.5" y="112.5" width="112.5" height="112.5" fill="#D04940"/>
<rect x="487.5" y="3.43323e-05" width="112.5" height="112.5" fill="#E9DE7C"/>
<rect x="150" y="225" width="112.5" height="225" fill="#363C3E"/>
<rect x="262.5" y="225" width="112.5" height="225" fill="#E9DE7C"/>
<rect width="112.5" height="225" transform="matrix(4.37114e-08 -1 -1 -4.37114e-08 600 450)" fill="#363C3E"/>
<rect width="112.5" height="225" transform="matrix(4.37114e-08 -1 -1 -4.37114e-08 600 337.5)" fill="#72CB96"/>
<path d="M150 450L150 675L375 450L150 450Z" fill="#D04940"/>
<path d="M-75 450L-75 675L150 450L-75 450Z" fill="#72CB96"/>
<rect x="150" y="675" width="225" height="225" fill="#E9DE7C"/>
<rect x="-75" y="225" width="225" height="225" fill="#E9DE7C"/>
<path d="M-75 225C-45.1631 225 -16.5483 236.853 4.54951 257.95C25.6474 279.048 37.5 307.663 37.5 337.5C37.5 367.337 25.6474 395.952 4.54952 417.049C-16.5483 438.147 -45.1631 450 -75 450L-75 225Z" fill="#D04940"/>
<path d="M150 225C120.163 225 91.5482 236.853 70.4504 257.95C49.3525 279.048 37.4999 307.663 37.4999 337.5C37.4999 367.337 49.3525 395.952 70.4504 417.049C91.5482 438.147 120.163 450 150 450L150 225Z" fill="#72CB96"/>
<rect x="150" y="787.5" width="112.5" height="112.5" fill="#D04940"/>
<path d="M262.5 675C247.726 675 233.097 677.91 219.448 683.564C205.799 689.217 193.397 697.504 182.95 707.95C172.504 718.397 164.217 730.799 158.563 744.448C152.91 758.097 150 772.726 150 787.5L262.5 787.5L262.5 675Z" fill="#D04940"/>
<path d="M262.5 675C277.274 675 291.903 677.91 305.552 683.564C319.201 689.217 331.603 697.504 342.05 707.95C352.496 718.397 360.783 730.799 366.437 744.448C372.09 758.097 375 772.726 375 787.5L262.5 787.5L262.5 675Z" fill="#363C3E"/>
<rect x="262.5" y="787.5" width="112.5" height="112.5" fill="#363C3E"/>
<circle cx="37.5" cy="787.5" r="112.5" fill="#72CB96"/>
</svg>
